HIERARCHY
ROOT Hips
{
	OFFSET 0.000000 0.000000 0.000000
	CHANNELS 6 Xposition Yposition Zposition Zrotation Yrotation Xrotation 
	JOINT LowerBack
	{
		OFFSET 0.000000 0.000000 0.000000
		CHANNELS 3 Zrotation Yrotation Xrotation
		JOINT Spine
		{
			OFFSET 0.028270 2.035590 -0.193380
			CHANNELS 3 Zrotation Yrotation Xrotation
			JOINT Spine1
			{
				OFFSET 0.056720 2.048850 -0.042750
				CHANNELS 3 Zrotation Yrotation Xrotation
				JOINT Neck
				{
					OFFSET 0.000000 0.000000 0.000000
					CHANNELS 3 Zrotation Yrotation Xrotation
					JOINT Neck1
					{
						OFFSET -0.054170 1.746240 0.172020
						CHANNELS 3 Zrotation Yrotation Xrotation
						JOINT Head
						{
							OFFSET 0.104070 1.761360 -0.123970
							CHANNELS 3 Zrotation Yrotation Xrotation
							End Site
							{
								OFFSET 0.000000 0.000000 0.000000
							}
						}
					}
				}
				JOINT LeftShoulder
				{
					OFFSET 0.000000 0.000000 0.000000
					CHANNELS 3 Zrotation Yrotation Xrotation
					JOINT LeftArm
					{
						OFFSET 3.362410 1.200890 -0.311210
						CHANNELS 3 Zrotation Yrotation Xrotation
						JOINT LeftForeArm
						{
							OFFSET 4.983000 -0.000000 -0.000000
							CHANNELS 3 Zrotation Yrotation Xrotation
							JOINT LeftHand
							{
								OFFSET 3.483560 -0.000000 -0.000000
								CHANNELS 3 Zrotation Yrotation Xrotation
								JOINT LeftFingerBase
								{
									OFFSET 0.000000 0.000000 0.000000
									CHANNELS 3 Zrotation Yrotation Xrotation
									JOINT LeftHandIndex1
									{
										OFFSET 0.715260 -0.000000 -0.000000
										CHANNELS 3 Zrotation Yrotation Xrotation
										End Site
										{
											OFFSET 0.000000 0.000000 0.000000
										}
									}
								}
								JOINT LThumb
								{
									OFFSET 0.000000 0.000000 0.000000
									CHANNELS 3 Zrotation Yrotation Xrotation
									End Site
									{
										OFFSET 0.000000 0.000000 0.000000
									}
								}
							}
						}
					}
				}
				JOINT RightShoulder
				{
					OFFSET 0.000000 0.000000 0.000000
					CHANNELS 3 Zrotation Yrotation Xrotation
					JOINT RightArm
					{
						OFFSET -3.136600 1.374050 -0.404650
						CHANNELS 3 Zrotation Yrotation Xrotation
						JOINT RightForeArm
						{
							OFFSET -5.241900 -0.000000 -0.000000
							CHANNELS 3 Zrotation Yrotation Xrotation
							JOINT RightHand
							{
								OFFSET -3.444170 -0.000000 -0.000000
								CHANNELS 3 Zrotation Yrotation Xrotation
								JOINT RightFingerBase
								{
									OFFSET 0.000000 0.000000 0.000000
									CHANNELS 3 Zrotation Yrotation Xrotation
									JOINT RightHandIndex1
									{
										OFFSET -0.622530 -0.000000 -0.000000
										CHANNELS 3 Zrotation Yrotation Xrotation
										End Site
										{
											OFFSET 0.000000 0.000000 0.000000
										}
									}
								}
								JOINT RThumb
								{
									OFFSET 0.000000 0.000000 0.000000
									CHANNELS 3 Zrotation Yrotation Xrotation
									End Site
									{
										OFFSET 0.000000 0.000000 0.000000
									}
								}
							}
						}
					}
				}
			}
		}
	}
}
}
MOTION
Frames: 9
Frame Time: 0.008333
3.093784 16.867632 -1.439211 -169.790376 57.718461 -151.409858 6.704114 -2.511335 -7.719515 0.597594 -3.290128 -4.104809 -7.722953 -3.135960 0.060329 3.676305 -10.988570 -6.647527 -4.514971 -0.349461 0.208145 0.000000 0.000000 0.000000 10.161689 6.588441 -0.615059 -68.839317 -25.619603 25.123461 -178.236633 -69.603882 179.943687 5.698910 -2.593221 -0.172415 -0.285763 0.824390 -0.000000 0.000000 0.000000 0.000000 0.000000 0.000000 0.000000 6.781153 -6.743957 -0.840308 67.196103 9.310836 -10.740720 179.807284 82.464196 179.991385 0.439910 8.453157 0.044046 -0.103709 -0.577022 0.000000 0.000000 0.000000 0.000000 0.000000 0.000000 0.000000 
3.219859 16.843191 -1.512093 -169.896343 57.227083 -151.727097 6.801735 -2.593758 -7.720577 0.637178 -3.382708 -4.110945 -7.687304 -3.238061 0.051640 3.487929 -10.964635 -6.703725 -4.546385 -0.351061 0.189195 0.000000 0.000000 0.000000 9.901661 6.688110 -0.568704 -69.238381 -24.819786 25.358180 -178.250274 -69.969459 179.947770 5.424788 -2.590048 -0.163409 -0.275814 0.817889 -0.000000 0.000000 0.000000 0.000000 0.000000 0.000000 0.000000 6.798844 -6.725126 -0.904540 67.450517 9.506213 -10.769873 179.822577 83.072275 179.989560 0.222429 8.500346 0.026727 -0.100542 -0.575100 0.000000 0.000000 0.000000 0.000000 0.000000 0.000000 0.000000 
3.343271 16.823200 -1.587152 -169.964025 56.698581 -152.051433 6.911082 -2.678112 -7.676261 0.680188 -3.477263 -4.111370 -7.646310 -3.343161 0.033091 3.328267 -10.940440 -6.744695 -4.571499 -0.352275 0.174710 0.000000 0.000000 0.000000 9.607392 6.771901 -0.522447 -69.698810 -23.951010 25.593745 -178.284480 -70.480371 179.951656 5.164360 -2.574260 -0.154222 -0.265072 0.809303 -0.000000 0.000000 0.000000 0.000000 0.000000 0.000000 0.000000 6.831875 -6.710251 -0.969947 67.701836 9.722726 -10.731869 179.836737 83.721268 179.987824 0.012125 8.549328 0.009803 -0.097291 -0.572790 0.000000 0.000000 0.000000 0.000000 0.000000 0.000000 0.000000 
3.464016 16.808124 -1.664134 -169.986456 56.129984 -152.372047 7.034299 -2.762014 -7.591050 0.726115 -3.571762 -4.107129 -7.602707 -3.449066 0.004135 3.201484 -10.916262 -6.769083 -4.590873 -0.353172 0.165206 0.000000 0.000000 0.000000 9.280729 6.833219 -0.477196 -70.205460 -23.016376 25.815011 -178.341070 -71.134961 179.955161 4.929775 -2.539922 -0.144956 -0.253880 0.798469 -0.000000 0.000000 0.000000 0.000000 0.000000 0.000000 0.000000 6.886319 -6.699722 -1.035236 67.947290 9.951541 -10.629133 179.849610 84.402884 179.986185 -0.193592 8.593497 -0.007026 -0.093850 -0.569990 0.000000 0.000000 0.000000 0.000000 0.000000 0.000000 0.000000 
3.582184 16.798082 -1.742803 -169.960988 55.518036 -152.679847 7.170972 -2.843228 -7.472205 0.773906 -3.664169 -4.099367 -7.559678 -3.553436 -0.034148 3.110165 -10.893816 -6.776887 -4.604998 -0.353807 0.160824 0.000000 0.000000 0.000000 8.924291 6.868744 -0.434086 -70.739345 -22.026222 26.007852 -178.419915 -71.923875 179.958122 4.732811 -2.483029 -0.135811 -0.242660 0.785394 -0.000000 0.000000 0.000000 0.000000 0.000000 0.000000 0.000000 6.965783 -6.695287 -1.099625 68.187106 10.183149 -10.463397 179.861101 85.106038 179.984657 -0.396068 8.624758 -0.023659 -0.090156 -0.566605 0.000000 0.000000 0.000000 0.000000 0.000000 0.000000 0.000000 
3.698120 16.792977 -1.822652 -169.898768 54.861717 -152.976620 7.315277 -2.920394 -7.328261 0.821537 -3.752826 -4.089157 -7.520204 -3.654244 -0.079548 3.055807 -10.875590 -6.769424 -4.614191 -0.354214 0.161336 0.000000 0.000000 0.000000 8.542541 6.877785 -0.394183 -71.277827 -20.992737 26.158599 -178.519477 -72.834732 179.960425 4.583187 -2.402948 -0.127287 -0.231783 0.770213 -0.000000 0.000000 0.000000 0.000000 0.000000 0.000000 0.000000 7.072107 -6.699316 -1.162950 68.424402 10.408597 -10.236225 179.871185 85.817067 179.983271 -0.595579 8.634973 -0.040094 -0.086187 -0.562566 0.000000 0.000000 0.000000 0.000000 0.000000 0.000000 0.000000 
3.812080 16.792516 -1.903266 -169.817009 54.161323 -153.269164 7.455717 -2.992708 -7.168242 0.866006 -3.836078 -4.077415 -7.486792 -3.749429 -0.129303 3.037967 -10.864271 -6.748977 -4.618650 -0.354409 0.166224 0.000000 0.000000 0.000000 8.141810 6.861607 -0.358611 -71.799887 -19.929876 26.256269 -178.636235 -73.847147 179.962026 4.487190 -2.302557 -0.119685 -0.221563 0.753250 -0.000000 0.000000 0.000000 0.000000 0.000000 0.000000 0.000000 7.203901 -6.713866 -1.225321 68.664151 10.619655 -9.948518 179.879848 86.520880 179.982020 -0.790271 8.617457 -0.055931 -0.081981 -0.557863 0.000000 0.000000 0.000000 0.000000 0.000000 0.000000 0.000000 
3.924447 16.796225 -1.984220 -169.732750 53.418074 -153.562211 7.582799 -3.059640 -7.001440 0.904988 -3.912770 -4.064964 -7.461247 -3.837439 -0.179865 3.054494 -10.862704 -6.719045 -4.618480 -0.354388 0.174572 0.000000 0.000000 0.000000 7.728648 6.825277 -0.327911 -72.285625 -18.853651 26.294042 -178.765323 -74.938265 179.962928 4.447741 -2.188304 -0.113098 -0.212278 0.734958 -0.000000 0.000000 0.000000 0.000000 0.000000 0.000000 0.000000 7.357378 -6.740855 -1.287190 68.912202 10.810166 -9.600519 179.887172 87.201949 179.980967 -0.976142 8.567774 -0.070867 -0.077634 -0.552530 0.000000 0.000000 0.000000 0.000000 0.000000 0.000000 0.000000 
4.035549 16.803580 -2.065069 -169.671805 52.638104 -153.867427 7.682531 -3.120890 -6.837048 0.935539 -3.981535 -4.052591 -7.443991 -3.916576 -0.227987 3.101700 -10.872777 -6.683670 -4.613674 -0.354133 0.185286 0.000000 0.000000 0.000000 7.310790 6.775350 -0.302324 -72.718976 -17.776601 26.268421 -178.901153 -76.080729 179.963222 4.463096 -2.069650 -0.107725 -0.204075 0.715875 -0.000000 0.000000 0.000000 0.000000 0.000000 0.000000 0.000000 7.526503 -6.780314 -1.349129 69.174647 10.976296 -9.191605 179.893190 87.845000 179.980134 -1.147428 8.485117 -0.084102 -0.073279 -0.546677 0.000000 0.000000 0.000000 0.000000 0.000000 0.000000 0.000000 
